<svg xmlns="http://www.w3.org/2000/svg" xmlns:xlink="http://www.w3.org/1999/xlink" width="118px" height="50px" viewBox="0 0 118 50">
    <defs>
        <path id="a" d="M0 .153h14.086v13.94H0z"/>
        <path id="c" d="M.186.195H13.5v13.811H.186z"/>
    </defs>
    <g fill="none" fill-rule="evenodd">
       
       
        <path fill="#A8A8A8" d="M68.555 6.184h1.486v-.61h-1.486zM68.126 5.245h2.343v-.294h-2.343zM69.62 4.614l.002-.03V3.65a.323.323 0 0 0-.324-.322.323.323 0 0 0-.325.322v.935c0 .011.002.02.003.03h.643zM44.364 6.184h1.487v-.61h-1.487zM43.937 5.245h2.341v-.293h-2.341zM45.429 4.614c0-.01.003-.019.003-.028v-.937a.324.324 0 1 0-.648 0v.937l.002.028h.643zM57.524 1.414l.003-.03V.446a.323.323 0 0 0-.325-.32.323.323 0 0 0-.324.32v.938l.003.03h.643z"/>
        <path fill="#A8A8A8" d="M67.453 6.49v-.917s-1.214-.106-2.81-.575c-1.598-.472-4.53-2.34-4.53-2.34l-.001.004-.006-.003a4.028 4.028 0 0 0-.32-.166 4.72 4.72 0 0 0-.247-.11l-.098-.04a7.189 7.189 0 0 0-.372-.13 6.459 6.459 0 0 0-.228-.065c-.056-.016-.113-.028-.168-.042-.072-.016-.142-.033-.215-.047-.068-.015-.139-.025-.209-.036-.064-.01-.127-.021-.194-.03-.086-.012-.176-.019-.265-.027-.05-.005-.1-.012-.153-.014a6.313 6.313 0 0 0-.87 0c-.05.002-.1.01-.152.014-.09.008-.179.015-.266.027-.065.009-.129.02-.193.03-.07.01-.14.021-.208.036-.072.014-.144.03-.215.047-.056.014-.112.026-.169.042a8.086 8.086 0 0 0-.36.107 6.416 6.416 0 0 0-.239.088l-.1.04a5.046 5.046 0 0 0-.571.28l-.002-.005s-2.932 1.868-4.53 2.34c-1.595.47-2.81.575-2.81.575v.916h-3.241v6.162h10.62V9.57c0-1.574 1.286-2.849 2.871-2.849 1.587 0 2.873 1.275 2.873 2.848v3.08h10.62V6.49h-3.242zM58.68 5.101h-2.954v-.597a1.47 1.47 0 0 1 1.476-1.465c.816 0 1.478.656 1.478 1.465v.597z"/>
        <path fill="#A8A8A8" d="M57.55 3.808V3.73c0-.16-.156-.292-.349-.292-.192 0-.349.131-.349.292v.08c-.014.272-.205.515-.288.61l-.045.048h-.001v.055h.512l-.002.012c0 .095.078.173.173.173a.173.173 0 0 0 .175-.173c0-.005-.003-.008-.003-.012h.512v-.055l-.052-.055c-.086-.101-.268-.34-.283-.604M31.98 12.65v-.06l22.351-.46v.52zM82.42 12.65v-.06l-22.35-.46v.52z"/>
    </g>
</svg>